<svg width="40" height="40" viewBox="0 0 40 40" fill="none" xmlns="http://www.w3.org/2000/svg">
<path d="M33.5483 18.978C34.4193 18.9578 35.2902 19.0185 36.1612 19.1601C39.6856 19.8683 40.5363 23.2268 39.7058 25.9379C37.5588 32.8978 32.8596 37.349 25.8513 39.2104C16.8176 41.5977 7.62179 38.5629 2.65926 30.2272C-1.75633 22.8019 -0.561278 12.5846 5.41399 6.35305C9.46498 2.10431 14.4275 0.0203909 20.2002 0.000153173C25.8513 -0.0200733 30.7936 1.96268 34.7839 6.06982C35.7561 7.08148 35.8777 7.87049 35.2295 8.63934C34.5205 9.48906 33.3863 9.42836 32.3735 8.63934C32.0099 8.35577 31.65 8.06363 31.2896 7.77104C30.1841 6.87376 29.0736 5.97231 27.8363 5.30096C21.4155 1.7806 13.5767 2.99451 8.37122 8.174C4.56321 11.9776 2.92263 16.5906 3.46945 21.8712C4.38101 30.2879 10.9031 35.1234 16.9796 36.3171C25.3653 37.9559 33.204 33.2013 36.2423 25.8975C37.1334 23.7326 36.303 22.3973 33.9129 22.3973C27.3071 22.3973 20.7012 22.4173 14.0954 22.4374L13.9818 22.4377C11.2069 22.458 8.75603 20.2527 8.79661 17.4809C8.8168 15.6397 9.50545 14.0616 10.7613 13.1107C11.872 12.2786 13.1188 12.1837 13.6646 12.1421C13.6761 12.1413 13.6873 12.1404 13.6983 12.1396C16.8581 11.9575 24.8183 11.8967 35.4523 12.0586H36.6675C37.9234 12.0586 38.8349 12.7465 38.8146 13.6772C38.7944 14.6888 37.8828 15.4374 36.6271 15.4374C33.1027 15.4374 29.5782 15.4425 26.0538 15.4475C22.5295 15.4526 19.0051 15.4577 15.4808 15.4577C15.3648 15.4577 15.2475 15.4564 15.1296 15.4551C14.7741 15.4513 14.4128 15.4475 14.0629 15.4778C13.0907 15.5385 12.3413 16.2669 12.321 17.1167C12.3007 18.0271 13.0299 18.8162 14.0224 18.9173C14.4883 18.9578 14.9743 18.978 15.4402 18.978C17.4522 18.978 19.4643 18.9758 21.4763 18.9735C25.5003 18.969 29.5243 18.9645 33.5483 18.978Z" fill="#289CFF"/>
<path d="M10.6195 29.3975H31.0974C32.1304 29.3975 32.9609 28.5477 32.9609 27.5361C32.9609 26.5043 32.1304 25.6747 31.0974 25.6747H10.6195C9.58652 25.6747 8.75603 26.5043 8.75603 27.5361C8.75603 28.5679 9.58652 29.3975 10.6195 29.3975Z" fill="#289CFF"/>
</svg>
