<svg width="64" height="62" viewBox="0 0 64 62" fill="none" xmlns="http://www.w3.org/2000/svg">
<path d="M10.178 61.0261C10.0439 61.0261 9.90875 61.0232 9.77343 61.0178C7.26079 60.9133 4.86372 59.8425 3.02382 58.0024C1.18391 56.1625 0.113153 53.7654 0.00841918 51.253C-0.0978632 48.6951 0.805053 46.3249 2.55087 44.5789L42.8964 4.23341C45.1271 2.00264 48.1615 0.848826 51.433 0.984922C54.6614 1.11908 57.743 2.49688 60.1102 4.86394C62.4775 7.23138 63.8555 10.313 63.9893 13.5413C64.1254 16.8152 62.9717 19.8468 60.7406 22.078L30.338 52.481C29.7712 53.0476 28.852 53.0478 28.2846 52.481C27.7177 51.9137 27.7177 50.9946 28.2846 50.4273L58.6873 20.0242C60.3373 18.3744 61.1901 16.1148 61.0879 13.6618C60.9839 11.1633 59.9074 8.76793 58.0566 6.91699C56.2061 5.06624 53.8107 3.99006 51.3122 3.8861C48.8594 3.78292 46.5994 4.63647 44.9498 6.28646L4.60431 46.6323C2.16582 49.0704 2.37838 53.2501 5.07726 55.949C6.40066 57.2726 8.11124 58.0423 9.89404 58.1163C11.6315 58.1838 13.2294 57.587 14.3939 56.4219L47.1964 23.6198C48.6333 22.1829 48.4918 19.7036 46.8811 18.0929C46.0848 17.2965 45.0586 16.8336 43.9919 16.7894C42.968 16.7484 42.0337 17.0982 41.3542 17.7779L18.495 40.6379C17.9277 41.2046 17.0086 41.2048 16.4415 40.6379C15.8743 40.0707 15.8743 39.1515 16.4415 38.5845L39.3008 15.7245C40.5614 14.4638 42.267 13.8079 44.1125 13.8881C45.9093 13.9626 47.6218 14.7267 48.9341 16.0397C51.6773 18.7823 51.8187 23.1039 49.2499 25.6732L16.4473 58.4756C14.7939 60.1288 12.5805 61.0261 10.178 61.0261Z" fill="white"/>
</svg>
