<svg width="16" height="19" viewBox="0 0 16 19" fill="none" xmlns="http://www.w3.org/2000/svg">
<path d="M4.94118 0.721519C4.94118 0.323035 5.25721 0 5.64706 0H15.2941C15.684 0 16 0.323035 16 0.721519V14.9114C16 15.3099 15.684 15.6329 15.2941 15.6329H12.2353V4.08861C12.2353 3.02598 11.3925 2.16456 10.3529 2.16456H4.94118V0.721519Z" fill="#289CFF" fill-opacity="0.3"/>
<path d="M10.3529 3.36709C10.7428 3.36709 11.0588 3.69012 11.0588 4.08861V18.2785C11.0588 18.677 10.7428 19 10.3529 19H0.705882C0.316034 19 0 18.677 0 18.2785V4.08861C0 3.69012 0.316034 3.36709 0.705882 3.36709H10.3529Z" fill="#289CFF" fill-opacity="0.3"/>
</svg>
